<svg t="1750090515508" class="icon" viewBox="0 0 1024 1024" version="1.1" xmlns="http://www.w3.org/2000/svg" p-id="2539" width="200" height="200"><path d="M512 512m-487.619048 0a487.619048 487.619048 0 1 0 975.238096 0 487.619048 487.619048 0 1 0-975.238096 0Z" fill="#FFFFFF" p-id="2540"></path><path d="M512 512m-438.857143 0a438.857143 438.857143 0 1 0 877.714286 0 438.857143 438.857143 0 1 0-877.714286 0Z" fill="#000000" p-id="2541"></path><path d="M685.29981 239.616l-152.283429 174.08-131.657143-174.08h-190.659048l227.81562 297.935238-215.966477 246.832762h92.501334l166.66819-190.464 145.65181 190.464h185.977904l-237.519238-314.026667 201.874286-230.741333h-92.403809z m-32.426667 489.472L318.561524 292.035048H373.51619l330.605715 437.052952h-51.248762z" fill="#FFFFFF" p-id="2542"></path></svg>